<svg width="29" height="30" viewBox="0 0 29 30" fill="none" xmlns="http://www.w3.org/2000/svg">
<g clip-path="url(#clip0_2056_16839)">
<path d="M23.637 15.6287C23.8694 15.3907 24 15.068 24 14.7316C24 14.3952 23.8694 14.0726 23.637 13.8345L15.3622 5.37127C15.1295 5.13353 14.814 5 14.4851 5C14.1561 5 13.8407 5.13353 13.6079 5.37127L5.33313 13.8345C5.11388 14.0752 4.99452 14.3935 5.00019 14.7224C5.00587 15.0512 5.13613 15.365 5.36355 15.5976C5.59096 15.8302 5.89776 15.9635 6.21933 15.9693C6.54089 15.9751 6.85209 15.853 7.08739 15.6287L14.4851 8.0647L21.8827 15.6287C22.1155 15.8665 22.4309 16 22.7599 16C23.0888 16 23.4043 15.8665 23.637 15.6287Z" fill="white"/>
<path d="M23.637 24.6287C23.8694 24.3907 24 24.068 24 23.7316C24 23.3952 23.8694 23.0726 23.637 22.8345L15.3622 14.3713C15.1295 14.1335 14.814 14 14.4851 14C14.1561 14 13.8407 14.1335 13.6079 14.3713L5.33313 22.8345C5.11388 23.0752 4.99452 23.3935 5.00019 23.7224C5.00587 24.0512 5.13613 24.365 5.36355 24.5976C5.59096 24.8302 5.89776 24.9635 6.21933 24.9693C6.54089 24.9751 6.85209 24.853 7.08739 24.6287L14.4851 17.0647L21.8827 24.6287C22.1155 24.8665 22.4309 25 22.7599 25C23.0888 25 23.4043 24.8665 23.637 24.6287Z" fill="white"/>
</g>
<defs>
<clipPath id="clip0_2056_16839">
<rect width="29" height="30" fill="white"/>
</clipPath>
</defs>
</svg>
