<svg width="30" height="29" viewBox="0 0 30 29" fill="none" xmlns="http://www.w3.org/2000/svg">
<rect width="30" height="29" rx="14.5" transform="matrix(-1 0 0 1 30 0)" fill="#56868B"/>
<path d="M19.7799 12.1912C19.6389 12.0688 19.4477 12 19.2484 12C19.049 12 18.8578 12.0688 18.7168 12.1912L14.9955 15.4237L11.2741 12.1912C11.1323 12.0722 10.9424 12.0064 10.7453 12.0079C10.5481 12.0094 10.3596 12.0781 10.2202 12.1992C10.0808 12.3202 10.0017 12.484 10 12.6552C9.99832 12.8265 10.0741 12.9914 10.211 13.1146L14.4639 16.8088C14.6049 16.9312 14.7961 17 14.9955 17C15.1948 17 15.386 16.9312 15.527 16.8088L19.7799 13.1146C19.9208 12.9921 20 12.8261 20 12.6529C20 12.4797 19.9208 12.3137 19.7799 12.1912Z" fill="white"/>
</svg>
